<mxfile host="app.diagrams.net" modified="2021-05-30T10:49:50.801Z" agent="5.0 (Macintosh; Intel Mac OS X 10_15_7) AppleWebKit/537.36 (KHTML, like Gecko) Chrome/90.0.4430.212 Safari/537.36" etag="wCdXT02QIJ8ZKDKzwmEa" version="14.7.0" type="github">
  <diagram id="mJJ4weVtExKAIo2-QUBP" name="Page-1">
    <mxGraphModel dx="4246" dy="557" grid="1" gridSize="10" guides="1" tooltips="1" connect="1" arrows="1" fold="1" page="1" pageScale="1" pageWidth="3300" pageHeight="4681" math="0" shadow="0">
      <root>
        <mxCell id="0" />
        <mxCell id="1" parent="0" />
        <mxCell id="Y0TnnzLGjobcWEU3dFfU-23" value="" style="edgeStyle=orthogonalEdgeStyle;rounded=0;orthogonalLoop=1;jettySize=auto;html=1;endArrow=none;endFill=0;exitX=0;exitY=0.5;exitDx=0;exitDy=0;" edge="1" parent="1" source="Y0TnnzLGjobcWEU3dFfU-24" target="Y0TnnzLGjobcWEU3dFfU-25">
          <mxGeometry relative="1" as="geometry">
            <mxPoint x="-1786" y="1105.115" as="sourcePoint" />
          </mxGeometry>
        </mxCell>
        <mxCell id="Y0TnnzLGjobcWEU3dFfU-52" style="edgeStyle=orthogonalEdgeStyle;rounded=0;orthogonalLoop=1;jettySize=auto;html=1;endArrow=none;endFill=0;" edge="1" parent="1" source="Y0TnnzLGjobcWEU3dFfU-24" target="Y0TnnzLGjobcWEU3dFfU-51">
          <mxGeometry relative="1" as="geometry">
            <Array as="points">
              <mxPoint x="-1166.5" y="749" />
              <mxPoint x="-580.5" y="749" />
            </Array>
          </mxGeometry>
        </mxCell>
        <mxCell id="Y0TnnzLGjobcWEU3dFfU-24" value="" style="aspect=fixed;perimeter=ellipsePerimeter;html=1;align=center;shadow=0;dashed=0;spacingTop=3;image;image=img/lib/active_directory/internet_cloud.svg;" vertex="1" parent="1">
          <mxGeometry x="-1704" y="1060.1599999999999" width="145.98" height="91.97" as="geometry" />
        </mxCell>
        <mxCell id="Y0TnnzLGjobcWEU3dFfU-25" value="" style="shape=mxgraph.cisco.misc.access_point;html=1;pointerEvents=1;dashed=0;fillColor=#036897;strokeColor=#ffffff;strokeWidth=2;verticalLabelPosition=bottom;verticalAlign=top;align=center;outlineConnect=0;" vertex="1" parent="1">
          <mxGeometry x="-1953" y="1043.9099999999999" width="75" height="34" as="geometry" />
        </mxCell>
        <mxCell id="Y0TnnzLGjobcWEU3dFfU-152" style="edgeStyle=orthogonalEdgeStyle;rounded=0;orthogonalLoop=1;jettySize=auto;html=1;exitX=0.5;exitY=0;exitDx=0;exitDy=0;entryX=0.5;entryY=0.985;entryDx=0;entryDy=0;entryPerimeter=0;endArrow=none;endFill=0;" edge="1" parent="1" source="Y0TnnzLGjobcWEU3dFfU-27" target="Y0TnnzLGjobcWEU3dFfU-25">
          <mxGeometry relative="1" as="geometry" />
        </mxCell>
        <mxCell id="Y0TnnzLGjobcWEU3dFfU-27" value="" style="image;html=1;image=img/lib/clip_art/networking/Router_Icon_128x128.png" vertex="1" parent="1">
          <mxGeometry x="-1945" y="1223.42" width="58" height="47" as="geometry" />
        </mxCell>
        <mxCell id="Y0TnnzLGjobcWEU3dFfU-28" value="" style="aspect=fixed;perimeter=ellipsePerimeter;html=1;align=center;shadow=0;dashed=0;spacingTop=3;image;image=img/lib/active_directory/laptop_client.svg;" vertex="1" parent="1">
          <mxGeometry x="-2040" y="1307.1" width="45" height="50" as="geometry" />
        </mxCell>
        <mxCell id="Y0TnnzLGjobcWEU3dFfU-29" value="" style="aspect=fixed;perimeter=ellipsePerimeter;html=1;align=center;shadow=0;dashed=0;spacingTop=3;image;image=img/lib/active_directory/tablet_pc.svg;" vertex="1" parent="1">
          <mxGeometry x="-1824" y="1311.6" width="36.5" height="50" as="geometry" />
        </mxCell>
        <mxCell id="Y0TnnzLGjobcWEU3dFfU-30" value="" style="edgeStyle=orthogonalEdgeStyle;rounded=0;orthogonalLoop=1;jettySize=auto;html=1;endArrow=none;endFill=0;dashed=1;" edge="1" parent="1" source="Y0TnnzLGjobcWEU3dFfU-31" target="Y0TnnzLGjobcWEU3dFfU-27">
          <mxGeometry relative="1" as="geometry" />
        </mxCell>
        <mxCell id="Y0TnnzLGjobcWEU3dFfU-31" value="" style="html=1;verticalLabelPosition=bottom;align=center;labelBackgroundColor=#ffffff;verticalAlign=top;strokeWidth=2;strokeColor=#0080F0;shadow=0;dashed=0;shape=mxgraph.ios7.icons.smartphone;" vertex="1" parent="1">
          <mxGeometry x="-1929" y="1314.6" width="27" height="47" as="geometry" />
        </mxCell>
        <mxCell id="Y0TnnzLGjobcWEU3dFfU-34" value="" style="edgeStyle=orthogonalEdgeStyle;rounded=0;orthogonalLoop=1;jettySize=auto;html=1;endArrow=none;endFill=0;entryX=1;entryY=0.5;entryDx=0;entryDy=0;exitX=0.5;exitY=0;exitDx=0;exitDy=0;dashed=1;" edge="1" parent="1" source="Y0TnnzLGjobcWEU3dFfU-29" target="Y0TnnzLGjobcWEU3dFfU-27">
          <mxGeometry relative="1" as="geometry">
            <mxPoint x="-1906.5" y="1328.1" as="sourcePoint" />
            <mxPoint x="-1906" y="1249.1" as="targetPoint" />
          </mxGeometry>
        </mxCell>
        <mxCell id="Y0TnnzLGjobcWEU3dFfU-35" value="" style="edgeStyle=orthogonalEdgeStyle;rounded=0;orthogonalLoop=1;jettySize=auto;html=1;endArrow=none;endFill=0;entryX=0;entryY=0.5;entryDx=0;entryDy=0;exitX=0.5;exitY=0;exitDx=0;exitDy=0;" edge="1" parent="1" source="Y0TnnzLGjobcWEU3dFfU-28" target="Y0TnnzLGjobcWEU3dFfU-27">
          <mxGeometry relative="1" as="geometry">
            <mxPoint x="-1780.75" y="1323.1" as="sourcePoint" />
            <mxPoint x="-1877" y="1225.6" as="targetPoint" />
          </mxGeometry>
        </mxCell>
        <mxCell id="Y0TnnzLGjobcWEU3dFfU-39" value="Internet" style="text;html=1;align=center;verticalAlign=middle;resizable=0;points=[];autosize=1;strokeColor=none;fontSize=17;" vertex="1" parent="1">
          <mxGeometry x="-1665.01" y="1175.6" width="68" height="24" as="geometry" />
        </mxCell>
        <mxCell id="Y0TnnzLGjobcWEU3dFfU-40" value="Home&lt;br&gt;Access Point" style="text;html=1;align=center;verticalAlign=middle;resizable=0;points=[];autosize=1;strokeColor=none;" vertex="1" parent="1">
          <mxGeometry x="-1955" y="997.13" width="79" height="32" as="geometry" />
        </mxCell>
        <mxCell id="Y0TnnzLGjobcWEU3dFfU-41" value="Home&lt;br&gt;Router" style="text;html=1;align=center;verticalAlign=middle;resizable=0;points=[];autosize=1;strokeColor=none;" vertex="1" parent="1">
          <mxGeometry x="-1991" y="1199.6" width="46" height="32" as="geometry" />
        </mxCell>
        <mxCell id="Y0TnnzLGjobcWEU3dFfU-42" value="Home devices" style="text;html=1;align=center;verticalAlign=middle;resizable=0;points=[];autosize=1;strokeColor=none;" vertex="1" parent="1">
          <mxGeometry x="-1959" y="1403.1" width="86" height="18" as="geometry" />
        </mxCell>
        <mxCell id="Y0TnnzLGjobcWEU3dFfU-44" value="" style="line;strokeWidth=4;direction=south;html=1;perimeter=backbonePerimeter;points=[];outlineConnect=0;" vertex="1" parent="1">
          <mxGeometry x="-1523" y="886.13" width="10" height="538" as="geometry" />
        </mxCell>
        <mxCell id="Y0TnnzLGjobcWEU3dFfU-45" value="" style="line;strokeWidth=4;direction=south;html=1;perimeter=backbonePerimeter;points=[];outlineConnect=0;" vertex="1" parent="1">
          <mxGeometry x="-1756" y="886.13" width="10" height="538" as="geometry" />
        </mxCell>
        <mxCell id="Y0TnnzLGjobcWEU3dFfU-46" value="&lt;font style=&quot;font-size: 48px&quot;&gt;Home&lt;/font&gt;" style="text;html=1;align=center;verticalAlign=middle;resizable=0;points=[];autosize=1;strokeColor=none;" vertex="1" parent="1">
          <mxGeometry x="-1929" y="911.13" width="138" height="30" as="geometry" />
        </mxCell>
        <mxCell id="Y0TnnzLGjobcWEU3dFfU-47" value="&lt;span style=&quot;font-size: 48px&quot;&gt;Company&lt;/span&gt;" style="text;html=1;align=center;verticalAlign=middle;resizable=0;points=[];autosize=1;strokeColor=none;" vertex="1" parent="1">
          <mxGeometry x="-1048.5" y="689" width="220" height="30" as="geometry" />
        </mxCell>
        <mxCell id="Y0TnnzLGjobcWEU3dFfU-48" value="" style="rounded=0;whiteSpace=wrap;html=1;fillColor=none;" vertex="1" parent="1">
          <mxGeometry x="-758.5" y="919" width="485" height="190" as="geometry" />
        </mxCell>
        <mxCell id="Y0TnnzLGjobcWEU3dFfU-62" style="edgeStyle=orthogonalEdgeStyle;rounded=0;orthogonalLoop=1;jettySize=auto;html=1;endArrow=none;endFill=0;" edge="1" parent="1" source="Y0TnnzLGjobcWEU3dFfU-51" target="Y0TnnzLGjobcWEU3dFfU-53">
          <mxGeometry relative="1" as="geometry" />
        </mxCell>
        <mxCell id="Y0TnnzLGjobcWEU3dFfU-51" value="" style="image;html=1;image=img/lib/clip_art/networking/Router_Icon_128x128.png" vertex="1" parent="1">
          <mxGeometry x="-609.5" y="839" width="58" height="46.43" as="geometry" />
        </mxCell>
        <mxCell id="Y0TnnzLGjobcWEU3dFfU-59" style="edgeStyle=orthogonalEdgeStyle;rounded=0;orthogonalLoop=1;jettySize=auto;html=1;entryX=0;entryY=0.75;entryDx=0;entryDy=0;endArrow=none;endFill=0;" edge="1" parent="1" source="Y0TnnzLGjobcWEU3dFfU-53" target="Y0TnnzLGjobcWEU3dFfU-58">
          <mxGeometry relative="1" as="geometry" />
        </mxCell>
        <mxCell id="Y0TnnzLGjobcWEU3dFfU-64" style="edgeStyle=orthogonalEdgeStyle;rounded=0;orthogonalLoop=1;jettySize=auto;html=1;entryX=0.5;entryY=0;entryDx=0;entryDy=0;endArrow=none;endFill=0;" edge="1" parent="1" source="Y0TnnzLGjobcWEU3dFfU-53" target="Y0TnnzLGjobcWEU3dFfU-63">
          <mxGeometry relative="1" as="geometry" />
        </mxCell>
        <mxCell id="Y0TnnzLGjobcWEU3dFfU-112" style="edgeStyle=orthogonalEdgeStyle;rounded=0;orthogonalLoop=1;jettySize=auto;html=1;exitX=1;exitY=0.75;exitDx=0;exitDy=0;entryX=0;entryY=0.5;entryDx=0;entryDy=0;endArrow=none;endFill=0;" edge="1" parent="1" source="Y0TnnzLGjobcWEU3dFfU-53" target="Y0TnnzLGjobcWEU3dFfU-60">
          <mxGeometry relative="1" as="geometry" />
        </mxCell>
        <mxCell id="Y0TnnzLGjobcWEU3dFfU-53" value="" style="image;html=1;image=img/lib/clip_art/networking/Switch_128x128.png" vertex="1" parent="1">
          <mxGeometry x="-620.5" y="965.47" width="80" height="80" as="geometry" />
        </mxCell>
        <mxCell id="Y0TnnzLGjobcWEU3dFfU-55" style="edgeStyle=orthogonalEdgeStyle;rounded=0;orthogonalLoop=1;jettySize=auto;html=1;entryX=0.004;entryY=0.429;entryDx=0;entryDy=0;entryPerimeter=0;endArrow=none;endFill=0;" edge="1" parent="1" source="Y0TnnzLGjobcWEU3dFfU-54" target="Y0TnnzLGjobcWEU3dFfU-53">
          <mxGeometry relative="1" as="geometry" />
        </mxCell>
        <mxCell id="Y0TnnzLGjobcWEU3dFfU-54" value="" style="aspect=fixed;perimeter=ellipsePerimeter;html=1;align=center;shadow=0;dashed=0;spacingTop=3;image;image=img/lib/active_directory/firewall.svg;" vertex="1" parent="1">
          <mxGeometry x="-743.5" y="936.5699999999999" width="42" height="68.86" as="geometry" />
        </mxCell>
        <mxCell id="Y0TnnzLGjobcWEU3dFfU-57" style="edgeStyle=orthogonalEdgeStyle;rounded=0;orthogonalLoop=1;jettySize=auto;html=1;endArrow=none;endFill=0;" edge="1" parent="1" source="Y0TnnzLGjobcWEU3dFfU-56" target="Y0TnnzLGjobcWEU3dFfU-53">
          <mxGeometry relative="1" as="geometry" />
        </mxCell>
        <mxCell id="Y0TnnzLGjobcWEU3dFfU-56" value="" style="aspect=fixed;perimeter=ellipsePerimeter;html=1;align=center;shadow=0;dashed=0;spacingTop=3;image;image=img/lib/active_directory/firewall.svg;" vertex="1" parent="1">
          <mxGeometry x="-743.5" y="1005.4299999999998" width="42" height="68.86" as="geometry" />
        </mxCell>
        <mxCell id="Y0TnnzLGjobcWEU3dFfU-58" value="" style="aspect=fixed;perimeter=ellipsePerimeter;html=1;align=center;shadow=0;dashed=0;spacingTop=3;image;image=img/lib/active_directory/generic_server.svg;" vertex="1" parent="1">
          <mxGeometry x="-433.5" y="929" width="39.18" height="69.97" as="geometry" />
        </mxCell>
        <mxCell id="Y0TnnzLGjobcWEU3dFfU-60" value="" style="aspect=fixed;perimeter=ellipsePerimeter;html=1;align=center;shadow=0;dashed=0;spacingTop=3;image;image=img/lib/active_directory/generic_server.svg;" vertex="1" parent="1">
          <mxGeometry x="-375" y="998.97" width="39.18" height="69.97" as="geometry" />
        </mxCell>
        <mxCell id="Y0TnnzLGjobcWEU3dFfU-65" style="edgeStyle=orthogonalEdgeStyle;rounded=0;orthogonalLoop=1;jettySize=auto;html=1;endArrow=none;endFill=0;entryX=0.363;entryY=-0.018;entryDx=0;entryDy=0;entryPerimeter=0;exitX=0;exitY=0.5;exitDx=0;exitDy=0;" edge="1" parent="1" source="Y0TnnzLGjobcWEU3dFfU-63" target="Y0TnnzLGjobcWEU3dFfU-67">
          <mxGeometry relative="1" as="geometry">
            <mxPoint x="-833.5" y="1305" as="targetPoint" />
            <mxPoint x="-649.5" y="1233.7142857142858" as="sourcePoint" />
          </mxGeometry>
        </mxCell>
        <mxCell id="Y0TnnzLGjobcWEU3dFfU-66" style="edgeStyle=orthogonalEdgeStyle;rounded=0;orthogonalLoop=1;jettySize=auto;html=1;endArrow=none;endFill=0;entryX=0.447;entryY=-0.018;entryDx=0;entryDy=0;entryPerimeter=0;" edge="1" parent="1" source="Y0TnnzLGjobcWEU3dFfU-63" target="Y0TnnzLGjobcWEU3dFfU-68">
          <mxGeometry relative="1" as="geometry">
            <mxPoint x="-343.5" y="1189" as="targetPoint" />
          </mxGeometry>
        </mxCell>
        <mxCell id="Y0TnnzLGjobcWEU3dFfU-63" value="" style="image;html=1;image=img/lib/clip_art/networking/Router_Icon_128x128.png" vertex="1" parent="1">
          <mxGeometry x="-609.5" y="1164.54" width="58" height="46.43" as="geometry" />
        </mxCell>
        <mxCell id="Y0TnnzLGjobcWEU3dFfU-76" style="edgeStyle=orthogonalEdgeStyle;rounded=0;orthogonalLoop=1;jettySize=auto;html=1;entryX=0.75;entryY=0;entryDx=0;entryDy=0;endArrow=none;endFill=0;" edge="1" parent="1" source="Y0TnnzLGjobcWEU3dFfU-67" target="Y0TnnzLGjobcWEU3dFfU-73">
          <mxGeometry relative="1" as="geometry">
            <Array as="points">
              <mxPoint x="-843.5" y="1423" />
              <mxPoint x="-879.5" y="1423" />
            </Array>
          </mxGeometry>
        </mxCell>
        <mxCell id="Y0TnnzLGjobcWEU3dFfU-77" style="edgeStyle=orthogonalEdgeStyle;rounded=0;orthogonalLoop=1;jettySize=auto;html=1;entryX=0.5;entryY=0;entryDx=0;entryDy=0;endArrow=none;endFill=0;" edge="1" parent="1" source="Y0TnnzLGjobcWEU3dFfU-67" target="Y0TnnzLGjobcWEU3dFfU-74">
          <mxGeometry relative="1" as="geometry" />
        </mxCell>
        <mxCell id="Y0TnnzLGjobcWEU3dFfU-78" style="edgeStyle=orthogonalEdgeStyle;rounded=0;orthogonalLoop=1;jettySize=auto;html=1;endArrow=none;endFill=0;" edge="1" parent="1" source="Y0TnnzLGjobcWEU3dFfU-67" target="Y0TnnzLGjobcWEU3dFfU-75">
          <mxGeometry relative="1" as="geometry">
            <Array as="points">
              <mxPoint x="-793.5" y="1425" />
              <mxPoint x="-723.5" y="1425" />
            </Array>
          </mxGeometry>
        </mxCell>
        <mxCell id="Y0TnnzLGjobcWEU3dFfU-67" value="" style="image;html=1;image=img/lib/clip_art/networking/Switch_128x128.png" vertex="1" parent="1">
          <mxGeometry x="-863.5" y="1285" width="80" height="80" as="geometry" />
        </mxCell>
        <mxCell id="Y0TnnzLGjobcWEU3dFfU-92" style="edgeStyle=orthogonalEdgeStyle;rounded=0;orthogonalLoop=1;jettySize=auto;html=1;entryX=0.5;entryY=0;entryDx=0;entryDy=0;endArrow=none;endFill=0;" edge="1" parent="1" source="Y0TnnzLGjobcWEU3dFfU-68" target="Y0TnnzLGjobcWEU3dFfU-91">
          <mxGeometry relative="1" as="geometry">
            <mxPoint x="-245.5" y="1573.94" as="targetPoint" />
          </mxGeometry>
        </mxCell>
        <mxCell id="Y0TnnzLGjobcWEU3dFfU-110" style="edgeStyle=orthogonalEdgeStyle;rounded=0;orthogonalLoop=1;jettySize=auto;html=1;exitX=0.75;exitY=1;exitDx=0;exitDy=0;endArrow=none;endFill=0;" edge="1" parent="1" source="Y0TnnzLGjobcWEU3dFfU-68" target="Y0TnnzLGjobcWEU3dFfU-106">
          <mxGeometry relative="1" as="geometry">
            <Array as="points">
              <mxPoint x="-212.5" y="1384" />
              <mxPoint x="-212.5" y="1504" />
            </Array>
          </mxGeometry>
        </mxCell>
        <mxCell id="Y0TnnzLGjobcWEU3dFfU-113" style="edgeStyle=orthogonalEdgeStyle;rounded=0;orthogonalLoop=1;jettySize=auto;html=1;exitX=0.75;exitY=0;exitDx=0;exitDy=0;entryX=0;entryY=1;entryDx=0;entryDy=0;endArrow=none;endFill=0;" edge="1" parent="1" source="Y0TnnzLGjobcWEU3dFfU-68" target="Y0TnnzLGjobcWEU3dFfU-84">
          <mxGeometry relative="1" as="geometry">
            <mxPoint x="87.99809183879916" y="1259.0020803589498" as="targetPoint" />
            <Array as="points">
              <mxPoint x="-212.5" y="1304" />
              <mxPoint x="-212.5" y="1294" />
            </Array>
          </mxGeometry>
        </mxCell>
        <mxCell id="Y0TnnzLGjobcWEU3dFfU-138" style="edgeStyle=orthogonalEdgeStyle;rounded=0;orthogonalLoop=1;jettySize=auto;html=1;exitX=1;exitY=0.25;exitDx=0;exitDy=0;entryX=0;entryY=0.5;entryDx=0;entryDy=0;endArrow=none;endFill=0;" edge="1" parent="1" source="Y0TnnzLGjobcWEU3dFfU-68" target="Y0TnnzLGjobcWEU3dFfU-85">
          <mxGeometry relative="1" as="geometry" />
        </mxCell>
        <mxCell id="Y0TnnzLGjobcWEU3dFfU-68" value="" style="image;html=1;image=img/lib/clip_art/networking/Switch_128x128.png" vertex="1" parent="1">
          <mxGeometry x="-292" y="1303.94" width="80" height="80" as="geometry" />
        </mxCell>
        <mxCell id="Y0TnnzLGjobcWEU3dFfU-71" style="edgeStyle=orthogonalEdgeStyle;rounded=0;orthogonalLoop=1;jettySize=auto;html=1;endArrow=none;endFill=0;" edge="1" parent="1" source="Y0TnnzLGjobcWEU3dFfU-69" target="Y0TnnzLGjobcWEU3dFfU-67">
          <mxGeometry relative="1" as="geometry" />
        </mxCell>
        <mxCell id="Y0TnnzLGjobcWEU3dFfU-69" value="" style="aspect=fixed;perimeter=ellipsePerimeter;html=1;align=center;shadow=0;dashed=0;spacingTop=3;image;image=img/lib/active_directory/firewall.svg;" vertex="1" parent="1">
          <mxGeometry x="-953.5" y="1262.9699999999998" width="42" height="68.86" as="geometry" />
        </mxCell>
        <mxCell id="Y0TnnzLGjobcWEU3dFfU-72" style="edgeStyle=orthogonalEdgeStyle;rounded=0;orthogonalLoop=1;jettySize=auto;html=1;entryX=0;entryY=0.75;entryDx=0;entryDy=0;endArrow=none;endFill=0;" edge="1" parent="1" source="Y0TnnzLGjobcWEU3dFfU-70" target="Y0TnnzLGjobcWEU3dFfU-67">
          <mxGeometry relative="1" as="geometry" />
        </mxCell>
        <mxCell id="Y0TnnzLGjobcWEU3dFfU-70" value="" style="aspect=fixed;perimeter=ellipsePerimeter;html=1;align=center;shadow=0;dashed=0;spacingTop=3;image;image=img/lib/active_directory/firewall.svg;" vertex="1" parent="1">
          <mxGeometry x="-953.5" y="1331.83" width="42" height="68.86" as="geometry" />
        </mxCell>
        <mxCell id="Y0TnnzLGjobcWEU3dFfU-73" value="" style="aspect=fixed;perimeter=ellipsePerimeter;html=1;align=center;shadow=0;dashed=0;spacingTop=3;image;image=img/lib/active_directory/laptop_client.svg;" vertex="1" parent="1">
          <mxGeometry x="-911.5" y="1529.02" width="45" height="50" as="geometry" />
        </mxCell>
        <mxCell id="Y0TnnzLGjobcWEU3dFfU-74" value="" style="aspect=fixed;perimeter=ellipsePerimeter;html=1;align=center;shadow=0;dashed=0;spacingTop=3;image;image=img/lib/active_directory/laptop_client.svg;" vertex="1" parent="1">
          <mxGeometry x="-846" y="1529.02" width="45" height="50" as="geometry" />
        </mxCell>
        <mxCell id="Y0TnnzLGjobcWEU3dFfU-75" value="" style="shape=mxgraph.cisco.computers_and_peripherals.macintosh;html=1;pointerEvents=1;dashed=0;fillColor=#036897;strokeColor=#ffffff;strokeWidth=2;verticalLabelPosition=bottom;verticalAlign=top;align=center;outlineConnect=0;" vertex="1" parent="1">
          <mxGeometry x="-772" y="1522.02" width="99" height="64" as="geometry" />
        </mxCell>
        <mxCell id="Y0TnnzLGjobcWEU3dFfU-81" style="edgeStyle=orthogonalEdgeStyle;rounded=0;orthogonalLoop=1;jettySize=auto;html=1;endArrow=none;endFill=0;" edge="1" parent="1" source="Y0TnnzLGjobcWEU3dFfU-79" target="Y0TnnzLGjobcWEU3dFfU-68">
          <mxGeometry relative="1" as="geometry" />
        </mxCell>
        <mxCell id="Y0TnnzLGjobcWEU3dFfU-79" value="" style="aspect=fixed;perimeter=ellipsePerimeter;html=1;align=center;shadow=0;dashed=0;spacingTop=3;image;image=img/lib/active_directory/firewall.svg;" vertex="1" parent="1">
          <mxGeometry x="-364" y="1286.4099999999999" width="42" height="68.86" as="geometry" />
        </mxCell>
        <mxCell id="Y0TnnzLGjobcWEU3dFfU-82" style="edgeStyle=orthogonalEdgeStyle;rounded=0;orthogonalLoop=1;jettySize=auto;html=1;endArrow=none;endFill=0;" edge="1" parent="1" source="Y0TnnzLGjobcWEU3dFfU-80" target="Y0TnnzLGjobcWEU3dFfU-68">
          <mxGeometry relative="1" as="geometry">
            <Array as="points">
              <mxPoint x="-302" y="1389.94" />
              <mxPoint x="-302" y="1353.94" />
            </Array>
          </mxGeometry>
        </mxCell>
        <mxCell id="Y0TnnzLGjobcWEU3dFfU-80" value="" style="aspect=fixed;perimeter=ellipsePerimeter;html=1;align=center;shadow=0;dashed=0;spacingTop=3;image;image=img/lib/active_directory/firewall.svg;" vertex="1" parent="1">
          <mxGeometry x="-364" y="1355.27" width="42" height="68.86" as="geometry" />
        </mxCell>
        <mxCell id="Y0TnnzLGjobcWEU3dFfU-137" style="edgeStyle=orthogonalEdgeStyle;rounded=0;orthogonalLoop=1;jettySize=auto;html=1;entryX=1;entryY=0.5;entryDx=0;entryDy=0;endArrow=none;endFill=0;" edge="1" parent="1" source="Y0TnnzLGjobcWEU3dFfU-83" target="Y0TnnzLGjobcWEU3dFfU-68">
          <mxGeometry relative="1" as="geometry">
            <Array as="points">
              <mxPoint x="-62" y="1407" />
              <mxPoint x="-62" y="1344" />
            </Array>
          </mxGeometry>
        </mxCell>
        <mxCell id="Y0TnnzLGjobcWEU3dFfU-83" value="" style="aspect=fixed;perimeter=ellipsePerimeter;html=1;align=center;shadow=0;dashed=0;spacingTop=3;image;image=img/lib/active_directory/generic_server.svg;" vertex="1" parent="1">
          <mxGeometry x="86.5" y="1371.92" width="39.18" height="69.97" as="geometry" />
        </mxCell>
        <mxCell id="Y0TnnzLGjobcWEU3dFfU-84" value="" style="aspect=fixed;perimeter=ellipsePerimeter;html=1;align=center;shadow=0;dashed=0;spacingTop=3;image;image=img/lib/active_directory/generic_server.svg;" vertex="1" parent="1">
          <mxGeometry x="296.5" y="1233.97" width="39.18" height="69.97" as="geometry" />
        </mxCell>
        <mxCell id="Y0TnnzLGjobcWEU3dFfU-85" value="" style="aspect=fixed;perimeter=ellipsePerimeter;html=1;align=center;shadow=0;dashed=0;spacingTop=3;image;image=img/lib/active_directory/generic_server.svg;" vertex="1" parent="1">
          <mxGeometry x="216.5" y="1313.97" width="39.18" height="69.97" as="geometry" />
        </mxCell>
        <mxCell id="Y0TnnzLGjobcWEU3dFfU-98" style="edgeStyle=orthogonalEdgeStyle;rounded=0;orthogonalLoop=1;jettySize=auto;html=1;endArrow=none;endFill=0;exitX=0.5;exitY=1;exitDx=0;exitDy=0;" edge="1" parent="1" source="Y0TnnzLGjobcWEU3dFfU-91" target="Y0TnnzLGjobcWEU3dFfU-93">
          <mxGeometry relative="1" as="geometry">
            <mxPoint x="-245.7500000000009" y="1808.9999999999995" as="sourcePoint" />
          </mxGeometry>
        </mxCell>
        <mxCell id="Y0TnnzLGjobcWEU3dFfU-91" value="" style="image;html=1;image=img/lib/clip_art/networking/Router_Icon_128x128.png" vertex="1" parent="1">
          <mxGeometry x="-274.81999999999994" y="1673.57" width="58" height="46.43" as="geometry" />
        </mxCell>
        <mxCell id="Y0TnnzLGjobcWEU3dFfU-103" style="edgeStyle=orthogonalEdgeStyle;rounded=0;orthogonalLoop=1;jettySize=auto;html=1;entryX=0.5;entryY=0;entryDx=0;entryDy=0;endArrow=none;endFill=0;" edge="1" parent="1" source="Y0TnnzLGjobcWEU3dFfU-93" target="Y0TnnzLGjobcWEU3dFfU-102">
          <mxGeometry relative="1" as="geometry" />
        </mxCell>
        <mxCell id="Y0TnnzLGjobcWEU3dFfU-93" value="" style="image;html=1;image=img/lib/clip_art/networking/Switch_128x128.png" vertex="1" parent="1">
          <mxGeometry x="-285.81999999999994" y="1832.57" width="80" height="80" as="geometry" />
        </mxCell>
        <mxCell id="Y0TnnzLGjobcWEU3dFfU-96" style="edgeStyle=orthogonalEdgeStyle;rounded=0;orthogonalLoop=1;jettySize=auto;html=1;entryX=-0.001;entryY=0.368;entryDx=0;entryDy=0;entryPerimeter=0;endArrow=none;endFill=0;exitX=1;exitY=0.5;exitDx=0;exitDy=0;" edge="1" parent="1" source="Y0TnnzLGjobcWEU3dFfU-94" target="Y0TnnzLGjobcWEU3dFfU-93">
          <mxGeometry relative="1" as="geometry">
            <mxPoint x="-352.3201071770327" y="1838.2499999999995" as="sourcePoint" />
          </mxGeometry>
        </mxCell>
        <mxCell id="Y0TnnzLGjobcWEU3dFfU-94" value="" style="aspect=fixed;perimeter=ellipsePerimeter;html=1;align=center;shadow=0;dashed=0;spacingTop=3;image;image=img/lib/active_directory/firewall.svg;" vertex="1" parent="1">
          <mxGeometry x="-394.31999999999994" y="1798.9999999999998" width="42" height="68.86" as="geometry" />
        </mxCell>
        <mxCell id="Y0TnnzLGjobcWEU3dFfU-97" style="edgeStyle=orthogonalEdgeStyle;rounded=0;orthogonalLoop=1;jettySize=auto;html=1;endArrow=none;endFill=0;" edge="1" parent="1" source="Y0TnnzLGjobcWEU3dFfU-95" target="Y0TnnzLGjobcWEU3dFfU-93">
          <mxGeometry relative="1" as="geometry" />
        </mxCell>
        <mxCell id="Y0TnnzLGjobcWEU3dFfU-95" value="" style="aspect=fixed;perimeter=ellipsePerimeter;html=1;align=center;shadow=0;dashed=0;spacingTop=3;image;image=img/lib/active_directory/firewall.svg;" vertex="1" parent="1">
          <mxGeometry x="-394.31999999999994" y="1872.57" width="42" height="68.86" as="geometry" />
        </mxCell>
        <mxCell id="Y0TnnzLGjobcWEU3dFfU-101" style="edgeStyle=orthogonalEdgeStyle;rounded=0;orthogonalLoop=1;jettySize=auto;html=1;endArrow=none;endFill=0;" edge="1" parent="1" source="Y0TnnzLGjobcWEU3dFfU-100" target="Y0TnnzLGjobcWEU3dFfU-93">
          <mxGeometry relative="1" as="geometry" />
        </mxCell>
        <mxCell id="Y0TnnzLGjobcWEU3dFfU-100" value="" style="aspect=fixed;perimeter=ellipsePerimeter;html=1;align=center;shadow=0;dashed=0;spacingTop=3;image;image=img/lib/active_directory/database_server.svg;" vertex="1" parent="1">
          <mxGeometry x="-125.1400000000001" y="1832.57" width="57.42" height="70.02" as="geometry" />
        </mxCell>
        <mxCell id="Y0TnnzLGjobcWEU3dFfU-105" style="edgeStyle=orthogonalEdgeStyle;rounded=0;orthogonalLoop=1;jettySize=auto;html=1;entryX=0.5;entryY=0;entryDx=0;entryDy=0;endArrow=none;endFill=0;" edge="1" parent="1" source="Y0TnnzLGjobcWEU3dFfU-102" target="Y0TnnzLGjobcWEU3dFfU-104">
          <mxGeometry relative="1" as="geometry" />
        </mxCell>
        <mxCell id="Y0TnnzLGjobcWEU3dFfU-102" value="" style="image;html=1;image=img/lib/clip_art/networking/Router_Icon_128x128.png" vertex="1" parent="1">
          <mxGeometry x="-274.81999999999994" y="2185.2799999999997" width="58" height="46.43" as="geometry" />
        </mxCell>
        <mxCell id="Y0TnnzLGjobcWEU3dFfU-109" style="edgeStyle=orthogonalEdgeStyle;rounded=0;orthogonalLoop=1;jettySize=auto;html=1;entryX=0.463;entryY=-0.006;entryDx=0;entryDy=0;entryPerimeter=0;endArrow=none;endFill=0;" edge="1" parent="1" source="Y0TnnzLGjobcWEU3dFfU-104" target="Y0TnnzLGjobcWEU3dFfU-108">
          <mxGeometry relative="1" as="geometry" />
        </mxCell>
        <mxCell id="Y0TnnzLGjobcWEU3dFfU-104" value="" style="image;html=1;image=img/lib/clip_art/networking/Switch_128x128.png" vertex="1" parent="1">
          <mxGeometry x="-285.81999999999994" y="2285.2799999999997" width="80" height="80" as="geometry" />
        </mxCell>
        <mxCell id="Y0TnnzLGjobcWEU3dFfU-106" value="" style="verticalLabelPosition=bottom;aspect=fixed;html=1;verticalAlign=top;strokeColor=none;align=center;outlineConnect=0;shape=mxgraph.citrix.proxy_server;" vertex="1" parent="1">
          <mxGeometry x="206" y="1459" width="76.5" height="90" as="geometry" />
        </mxCell>
        <mxCell id="Y0TnnzLGjobcWEU3dFfU-108" value="" style="shape=image;html=1;verticalAlign=top;verticalLabelPosition=bottom;labelBackgroundColor=#ffffff;imageAspect=0;aspect=fixed;image=https://cdn0.iconfinder.com/data/icons/infographic-element-8/512/41_Layer-128.png" vertex="1" parent="1">
          <mxGeometry x="-305.1399999999999" y="2402.71" width="128" height="128" as="geometry" />
        </mxCell>
        <mxCell id="Y0TnnzLGjobcWEU3dFfU-115" value="&lt;font style=&quot;font-size: 24px&quot;&gt;&lt;br&gt;DMZ&lt;br&gt;&lt;/font&gt;" style="text;html=1;align=center;verticalAlign=middle;resizable=0;points=[];autosize=1;strokeColor=none;" vertex="1" parent="1">
          <mxGeometry x="-248.14" y="919" width="70" height="40" as="geometry" />
        </mxCell>
        <mxCell id="Y0TnnzLGjobcWEU3dFfU-119" value="" style="rounded=0;whiteSpace=wrap;html=1;fillColor=none;" vertex="1" parent="1">
          <mxGeometry x="-433.5" y="1736.6" width="390" height="322.97" as="geometry" />
        </mxCell>
        <mxCell id="Y0TnnzLGjobcWEU3dFfU-120" value="Packet filtering" style="text;html=1;align=center;verticalAlign=middle;resizable=0;points=[];autosize=1;strokeColor=none;" vertex="1" parent="1">
          <mxGeometry x="-562.5" y="813" width="90" height="20" as="geometry" />
        </mxCell>
        <mxCell id="Y0TnnzLGjobcWEU3dFfU-121" value="&lt;font style=&quot;font-size: 15px&quot;&gt;Firewall&amp;nbsp;&lt;/font&gt;" style="text;html=1;align=center;verticalAlign=middle;resizable=0;points=[];autosize=1;strokeColor=none;" vertex="1" parent="1">
          <mxGeometry x="-716.5" y="929" width="70" height="20" as="geometry" />
        </mxCell>
        <mxCell id="Y0TnnzLGjobcWEU3dFfU-122" value="&lt;font style=&quot;font-size: 15px&quot;&gt;IDS&lt;/font&gt;" style="text;html=1;align=center;verticalAlign=middle;resizable=0;points=[];autosize=1;strokeColor=none;" vertex="1" parent="1">
          <mxGeometry x="-701.5" y="1054.29" width="40" height="20" as="geometry" />
        </mxCell>
        <mxCell id="Y0TnnzLGjobcWEU3dFfU-123" value="&lt;span style=&quot;font-size: 15px&quot;&gt;Switch&lt;/span&gt;" style="text;html=1;align=center;verticalAlign=middle;resizable=0;points=[];autosize=1;strokeColor=none;" vertex="1" parent="1">
          <mxGeometry x="-568.5" y="945.47" width="60" height="20" as="geometry" />
        </mxCell>
        <mxCell id="Y0TnnzLGjobcWEU3dFfU-124" value="&lt;span style=&quot;font-size: 15px&quot;&gt;WEB server&lt;/span&gt;" style="text;html=1;align=center;verticalAlign=middle;resizable=0;points=[];autosize=1;strokeColor=none;" vertex="1" parent="1">
          <mxGeometry x="-393" y="929" width="100" height="20" as="geometry" />
        </mxCell>
        <mxCell id="Y0TnnzLGjobcWEU3dFfU-125" value="&lt;span style=&quot;font-size: 15px&quot;&gt;DNS server&lt;/span&gt;" style="text;html=1;align=center;verticalAlign=middle;resizable=0;points=[];autosize=1;strokeColor=none;" vertex="1" parent="1">
          <mxGeometry x="-374.9999999999999" y="1070.97" width="90" height="20" as="geometry" />
        </mxCell>
        <mxCell id="Y0TnnzLGjobcWEU3dFfU-126" value="Packet filtering&amp;nbsp;" style="text;html=1;align=center;verticalAlign=middle;resizable=0;points=[];autosize=1;strokeColor=none;" vertex="1" parent="1">
          <mxGeometry x="-630.5" y="1213.97" width="100" height="20" as="geometry" />
        </mxCell>
        <mxCell id="Y0TnnzLGjobcWEU3dFfU-127" value="&lt;span style=&quot;font-size: 15px&quot;&gt;Switch&lt;/span&gt;" style="text;html=1;align=center;verticalAlign=middle;resizable=0;points=[];autosize=1;strokeColor=none;" vertex="1" parent="1">
          <mxGeometry x="-801" y="1279" width="60" height="20" as="geometry" />
        </mxCell>
        <mxCell id="Y0TnnzLGjobcWEU3dFfU-131" value="&lt;font style=&quot;font-size: 15px&quot;&gt;Firewall&amp;nbsp;&lt;/font&gt;" style="text;html=1;align=center;verticalAlign=middle;resizable=0;points=[];autosize=1;strokeColor=none;" vertex="1" parent="1">
          <mxGeometry x="-953.5" y="1233.97" width="70" height="20" as="geometry" />
        </mxCell>
        <mxCell id="Y0TnnzLGjobcWEU3dFfU-132" value="&lt;font style=&quot;font-size: 15px&quot;&gt;IDS&lt;/font&gt;" style="text;html=1;align=center;verticalAlign=middle;resizable=0;points=[];autosize=1;strokeColor=none;" vertex="1" parent="1">
          <mxGeometry x="-951.5" y="1404.13" width="40" height="20" as="geometry" />
        </mxCell>
        <mxCell id="Y0TnnzLGjobcWEU3dFfU-133" value="Office devices" style="text;html=1;align=center;verticalAlign=middle;resizable=0;points=[];autosize=1;strokeColor=none;" vertex="1" parent="1">
          <mxGeometry x="-848.5" y="1598.0000000000002" width="90" height="20" as="geometry" />
        </mxCell>
        <mxCell id="Y0TnnzLGjobcWEU3dFfU-134" value="&lt;font style=&quot;font-size: 15px&quot;&gt;Firewall&amp;nbsp;&lt;/font&gt;" style="text;html=1;align=center;verticalAlign=middle;resizable=0;points=[];autosize=1;strokeColor=none;" vertex="1" parent="1">
          <mxGeometry x="-378" y="1253.97" width="70" height="20" as="geometry" />
        </mxCell>
        <mxCell id="Y0TnnzLGjobcWEU3dFfU-135" value="&lt;font style=&quot;font-size: 15px&quot;&gt;IDS&lt;/font&gt;" style="text;html=1;align=center;verticalAlign=middle;resizable=0;points=[];autosize=1;strokeColor=none;" vertex="1" parent="1">
          <mxGeometry x="-364" y="1424.13" width="40" height="20" as="geometry" />
        </mxCell>
        <mxCell id="Y0TnnzLGjobcWEU3dFfU-136" value="&lt;span style=&quot;font-size: 15px&quot;&gt;PROXY&lt;/span&gt;" style="text;html=1;align=center;verticalAlign=middle;resizable=0;points=[];autosize=1;strokeColor=none;" vertex="1" parent="1">
          <mxGeometry x="200.68000000000006" y="1586.02" width="70" height="20" as="geometry" />
        </mxCell>
        <mxCell id="Y0TnnzLGjobcWEU3dFfU-139" value="&lt;font style=&quot;font-size: 24px&quot;&gt;APPLICATION LAYER&lt;br&gt;&lt;/font&gt;" style="text;html=1;align=center;verticalAlign=middle;resizable=0;points=[];autosize=1;strokeColor=none;" vertex="1" parent="1">
          <mxGeometry x="-143.5" y="1188" width="260" height="20" as="geometry" />
        </mxCell>
        <mxCell id="Y0TnnzLGjobcWEU3dFfU-140" value="&lt;font style=&quot;font-size: 24px&quot;&gt;TERMINAL PART&amp;nbsp;&lt;br&gt;&lt;/font&gt;" style="text;html=1;align=center;verticalAlign=middle;resizable=0;points=[];autosize=1;strokeColor=none;" vertex="1" parent="1">
          <mxGeometry x="-1133.5" y="1178" width="210" height="20" as="geometry" />
        </mxCell>
        <mxCell id="Y0TnnzLGjobcWEU3dFfU-141" value="&lt;span style=&quot;font-size: 15px&quot;&gt;AAA&lt;/span&gt;" style="text;html=1;align=center;verticalAlign=middle;resizable=0;points=[];autosize=1;strokeColor=none;" vertex="1" parent="1">
          <mxGeometry x="335.68000000000006" y="1293.97" width="50" height="20" as="geometry" />
        </mxCell>
        <mxCell id="Y0TnnzLGjobcWEU3dFfU-143" value="&lt;span style=&quot;font-size: 15px&quot;&gt;WEB SERVER&lt;/span&gt;" style="text;html=1;align=center;verticalAlign=middle;resizable=0;points=[];autosize=1;strokeColor=none;" vertex="1" parent="1">
          <mxGeometry x="255.68000000000006" y="1371.92" width="120" height="20" as="geometry" />
        </mxCell>
        <mxCell id="Y0TnnzLGjobcWEU3dFfU-145" value="&lt;span style=&quot;font-size: 15px&quot;&gt;DNS SERVER&lt;/span&gt;" style="text;html=1;align=center;verticalAlign=middle;resizable=0;points=[];autosize=1;strokeColor=none;" vertex="1" parent="1">
          <mxGeometry x="51.090000000000146" y="1444.13" width="110" height="20" as="geometry" />
        </mxCell>
        <mxCell id="Y0TnnzLGjobcWEU3dFfU-146" value="&lt;span style=&quot;font-size: 15px&quot;&gt;DBMS&lt;/span&gt;" style="text;html=1;align=center;verticalAlign=middle;resizable=0;points=[];autosize=1;strokeColor=none;" vertex="1" parent="1">
          <mxGeometry x="-132.7199999999999" y="1928" width="60" height="20" as="geometry" />
        </mxCell>
        <mxCell id="Y0TnnzLGjobcWEU3dFfU-147" value="Packet filtering&amp;nbsp;" style="text;html=1;align=center;verticalAlign=middle;resizable=0;points=[];autosize=1;strokeColor=none;" vertex="1" parent="1">
          <mxGeometry x="-216.81999999999994" y="1653.5700000000002" width="100" height="20" as="geometry" />
        </mxCell>
        <mxCell id="Y0TnnzLGjobcWEU3dFfU-148" value="&lt;font style=&quot;font-size: 15px&quot;&gt;Firewall&amp;nbsp;&lt;/font&gt;" style="text;html=1;align=center;verticalAlign=middle;resizable=0;points=[];autosize=1;strokeColor=none;" vertex="1" parent="1">
          <mxGeometry x="-379" y="1779" width="70" height="20" as="geometry" />
        </mxCell>
        <mxCell id="Y0TnnzLGjobcWEU3dFfU-149" value="&lt;font style=&quot;font-size: 15px&quot;&gt;IDS&lt;/font&gt;" style="text;html=1;align=center;verticalAlign=middle;resizable=0;points=[];autosize=1;strokeColor=none;" vertex="1" parent="1">
          <mxGeometry x="-362" y="1948" width="40" height="20" as="geometry" />
        </mxCell>
        <mxCell id="Y0TnnzLGjobcWEU3dFfU-150" value="Packet filtering&amp;nbsp;" style="text;html=1;align=center;verticalAlign=middle;resizable=0;points=[];autosize=1;strokeColor=none;" vertex="1" parent="1">
          <mxGeometry x="-232.7199999999999" y="2155" width="100" height="20" as="geometry" />
        </mxCell>
        <mxCell id="Y0TnnzLGjobcWEU3dFfU-151" value="DATA LAYER" style="text;html=1;align=center;verticalAlign=middle;resizable=0;points=[];autosize=1;strokeColor=none;" vertex="1" parent="1">
          <mxGeometry x="-141.42999999999995" y="2456.71" width="90" height="20" as="geometry" />
        </mxCell>
      </root>
    </mxGraphModel>
  </diagram>
</mxfile>
